<?xml version="1.0" encoding="utf-8" standalone="no"?>
<!DOCTYPE svg PUBLIC "-//W3C//DTD SVG 1.1//EN"
  "http://www.w3.org/Graphics/SVG/1.1/DTD/svg11.dtd">
<svg xmlns:xlink="http://www.w3.org/1999/xlink" width="792pt" height="612pt" viewBox="0 0 792 612" xmlns="http://www.w3.org/2000/svg" version="1.1">
 <metadata>
  <rdf:RDF xmlns:dc="http://purl.org/dc/elements/1.1/" xmlns:cc="http://creativecommons.org/ns#" xmlns:rdf="http://www.w3.org/1999/02/22-rdf-syntax-ns#">
   <cc:Work>
    <dc:type rdf:resource="http://purl.org/dc/dcmitype/StillImage"/>
    <dc:date>2026-07-17T00:27:58.980791</dc:date>
    <dc:format>image/svg+xml</dc:format>
    <dc:creator>
     <cc:Agent>
      <dc:title>Matplotlib v3.10.8, https://matplotlib.org/</dc:title>
     </cc:Agent>
    </dc:creator>
   </cc:Work>
  </rdf:RDF>
 </metadata>
 <defs>
  <style type="text/css">*{stroke-linejoin: round; stroke-linecap: butt}</style>
 </defs>
 <g id="figure_1">
  <g id="patch_1">
   <path d="M 0 612 
L 792 612 
L 792 0 
L 0 0 
z
" style="fill: #ffffff"/>
  </g>
  <g id="axes_1">
   <g id="patch_2">
    <path d="M 63.36 428.4 
L 780.12 428.4 
L 780.12 9.18 
L 63.36 9.18 
z
" style="fill: #ffffff"/>
   </g>
   <g id="line2d_1">
    <path d="M 273.649091 428.4 
L 273.649091 9.18 
" clip-path="url(#p49fe7894cb)" style="fill: none; stroke-dasharray: 2.22,0.96; stroke-dashoffset: 0; stroke: #bbbbbb; stroke-width: 0.6"/>
   </g>
   <g id="line2d_2">
    <path d="M 599.449091 428.4 
L 599.449091 9.18 
" clip-path="url(#p49fe7894cb)" style="fill: none; stroke-dasharray: 2.22,0.96; stroke-dashoffset: 0; stroke: #bbbbbb; stroke-width: 0.6"/>
   </g>
   <g id="matplotlib.axis_1">
    <g id="xtick_1">
     <g id="line2d_3"/>
     <g id="text_1">
      <!-- species -->
      <g style="fill: #262626" transform="translate(65.86602 449.359129) rotate(-45) scale(0.06 -0.06)">
       <defs>
        <path id="LiberationSans-73" d="M 2969 934 
Q 2969 456 2608 196 
Q 2247 -63 1597 -63 
Q 966 -63 623 145 
Q 281 353 178 794 
L 675 891 
Q 747 619 972 492 
Q 1197 366 1597 366 
Q 2025 366 2223 497 
Q 2422 628 2422 891 
Q 2422 1091 2284 1216 
Q 2147 1341 1841 1422 
L 1438 1528 
Q 953 1653 748 1773 
Q 544 1894 428 2066 
Q 313 2238 313 2488 
Q 313 2950 642 3192 
Q 972 3434 1603 3434 
Q 2163 3434 2492 3237 
Q 2822 3041 2909 2606 
L 2403 2544 
Q 2356 2769 2151 2889 
Q 1947 3009 1603 3009 
Q 1222 3009 1040 2893 
Q 859 2778 859 2544 
Q 859 2400 934 2306 
Q 1009 2213 1156 2147 
Q 1303 2081 1775 1966 
Q 2222 1853 2419 1758 
Q 2616 1663 2730 1547 
Q 2844 1431 2906 1279 
Q 2969 1128 2969 934 
z
" transform="scale(0.015625)"/>
        <path id="LiberationSans-70" d="M 3291 1706 
Q 3291 -63 2047 -63 
Q 1266 -63 997 525 
L 981 525 
Q 994 500 994 -6 
L 994 -1328 
L 431 -1328 
L 431 2691 
Q 431 3213 413 3381 
L 956 3381 
Q 959 3369 965 3292 
Q 972 3216 980 3056 
Q 988 2897 988 2838 
L 1000 2838 
Q 1150 3150 1397 3295 
Q 1644 3441 2047 3441 
Q 2672 3441 2981 3022 
Q 3291 2603 3291 1706 
z
M 2700 1694 
Q 2700 2400 2509 2703 
Q 2319 3006 1903 3006 
Q 1569 3006 1380 2865 
Q 1191 2725 1092 2426 
Q 994 2128 994 1650 
Q 994 984 1206 668 
Q 1419 353 1897 353 
Q 2316 353 2508 661 
Q 2700 969 2700 1694 
z
" transform="scale(0.015625)"/>
        <path id="LiberationSans-65" d="M 863 1572 
Q 863 991 1103 675 
Q 1344 359 1806 359 
Q 2172 359 2392 506 
Q 2613 653 2691 878 
L 3184 738 
Q 2881 -63 1806 -63 
Q 1056 -63 664 384 
Q 272 831 272 1713 
Q 272 2550 664 2997 
Q 1056 3444 1784 3444 
Q 3275 3444 3275 1647 
L 3275 1572 
L 863 1572 
z
M 2694 2003 
Q 2647 2538 2422 2783 
Q 2197 3028 1775 3028 
Q 1366 3028 1127 2754 
Q 888 2481 869 2003 
L 2694 2003 
z
" transform="scale(0.015625)"/>
        <path id="LiberationSans-63" d="M 859 1706 
Q 859 1031 1071 706 
Q 1284 381 1713 381 
Q 2013 381 2214 543 
Q 2416 706 2463 1044 
L 3031 1006 
Q 2966 519 2616 228 
Q 2266 -63 1728 -63 
Q 1019 -63 645 385 
Q 272 834 272 1694 
Q 272 2547 647 2995 
Q 1022 3444 1722 3444 
Q 2241 3444 2583 3175 
Q 2925 2906 3013 2434 
L 2434 2391 
Q 2391 2672 2212 2837 
Q 2034 3003 1706 3003 
Q 1259 3003 1059 2706 
Q 859 2409 859 1706 
z
" transform="scale(0.015625)"/>
        <path id="LiberationSans-69" d="M 428 4100 
L 428 4638 
L 991 4638 
L 991 4100 
L 428 4100 
z
M 428 0 
L 428 3381 
L 991 3381 
L 991 0 
L 428 0 
z
" transform="scale(0.015625)"/>
       </defs>
       <use xlink:href="#LiberationSans-73"/>
       <use xlink:href="#LiberationSans-70" transform="translate(50 0)"/>
       <use xlink:href="#LiberationSans-65" transform="translate(105.615234 0)"/>
       <use xlink:href="#LiberationSans-63" transform="translate(161.230469 0)"/>
       <use xlink:href="#LiberationSans-69" transform="translate(211.230469 0)"/>
       <use xlink:href="#LiberationSans-65" transform="translate(233.447266 0)"/>
       <use xlink:href="#LiberationSans-73" transform="translate(289.0625 0)"/>
      </g>
     </g>
    </g>
    <g id="xtick_2">
     <g id="line2d_4"/>
     <g id="text_2">
      <!-- tissue -->
      <g style="fill: #262626" transform="translate(98.78617 446.057162) rotate(-45) scale(0.06 -0.06)">
       <defs>
        <path id="LiberationSans-74" d="M 1731 25 
Q 1453 -50 1163 -50 
Q 488 -50 488 716 
L 488 2972 
L 97 2972 
L 97 3381 
L 509 3381 
L 675 4138 
L 1050 4138 
L 1050 3381 
L 1675 3381 
L 1675 2972 
L 1050 2972 
L 1050 838 
Q 1050 594 1129 495 
Q 1209 397 1406 397 
Q 1519 397 1731 441 
L 1731 25 
z
" transform="scale(0.015625)"/>
        <path id="LiberationSans-75" d="M 981 3381 
L 981 1238 
Q 981 903 1047 718 
Q 1113 534 1256 453 
Q 1400 372 1678 372 
Q 2084 372 2318 650 
Q 2553 928 2553 1422 
L 2553 3381 
L 3116 3381 
L 3116 722 
Q 3116 131 3134 0 
L 2603 0 
Q 2600 16 2597 84 
Q 2594 153 2589 242 
Q 2584 331 2578 578 
L 2569 578 
Q 2375 228 2120 82 
Q 1866 -63 1488 -63 
Q 931 -63 673 214 
Q 416 491 416 1128 
L 416 3381 
L 981 3381 
z
" transform="scale(0.015625)"/>
       </defs>
       <use xlink:href="#LiberationSans-74"/>
       <use xlink:href="#LiberationSans-69" transform="translate(27.783203 0)"/>
       <use xlink:href="#LiberationSans-73" transform="translate(50 0)"/>
       <use xlink:href="#LiberationSans-73" transform="translate(100 0)"/>
       <use xlink:href="#LiberationSans-75" transform="translate(150 0)"/>
       <use xlink:href="#LiberationSans-65" transform="translate(205.615234 0)"/>
      </g>
     </g>
    </g>
    <g id="xtick_3">
     <g id="line2d_5"/>
     <g id="text_3">
      <!-- disease state -->
      <g style="fill: #262626" transform="translate(114.48849 459.973023) rotate(-45) scale(0.06 -0.06)">
       <defs>
        <path id="LiberationSans-64" d="M 2566 544 
Q 2409 219 2151 78 
Q 1894 -63 1513 -63 
Q 872 -63 570 368 
Q 269 800 269 1675 
Q 269 3444 1513 3444 
Q 1897 3444 2153 3303 
Q 2409 3163 2566 2856 
L 2572 2856 
L 2566 3234 
L 2566 4638 
L 3128 4638 
L 3128 697 
Q 3128 169 3147 0 
L 2609 0 
Q 2600 50 2589 231 
Q 2578 413 2578 544 
L 2566 544 
z
M 859 1694 
Q 859 984 1046 678 
Q 1234 372 1656 372 
Q 2134 372 2350 703 
Q 2566 1034 2566 1731 
Q 2566 2403 2350 2715 
Q 2134 3028 1663 3028 
Q 1238 3028 1048 2714 
Q 859 2400 859 1694 
z
" transform="scale(0.015625)"/>
        <path id="LiberationSans-61" d="M 1294 -63 
Q 784 -63 528 206 
Q 272 475 272 944 
Q 272 1469 617 1750 
Q 963 2031 1731 2050 
L 2491 2063 
L 2491 2247 
Q 2491 2659 2316 2837 
Q 2141 3016 1766 3016 
Q 1388 3016 1216 2887 
Q 1044 2759 1009 2478 
L 422 2531 
Q 566 3444 1778 3444 
Q 2416 3444 2737 3151 
Q 3059 2859 3059 2306 
L 3059 850 
Q 3059 600 3125 473 
Q 3191 347 3375 347 
Q 3456 347 3559 369 
L 3559 19 
Q 3347 -31 3125 -31 
Q 2813 -31 2670 133 
Q 2528 297 2509 647 
L 2491 647 
Q 2275 259 1989 98 
Q 1703 -63 1294 -63 
z
M 1422 359 
Q 1731 359 1972 500 
Q 2213 641 2352 886 
Q 2491 1131 2491 1391 
L 2491 1669 
L 1875 1656 
Q 1478 1650 1273 1575 
Q 1069 1500 959 1344 
Q 850 1188 850 934 
Q 850 659 998 509 
Q 1147 359 1422 359 
z
" transform="scale(0.015625)"/>
        <path id="LiberationSans-20" transform="scale(0.015625)"/>
       </defs>
       <use xlink:href="#LiberationSans-64"/>
       <use xlink:href="#LiberationSans-69" transform="translate(55.615234 0)"/>
       <use xlink:href="#LiberationSans-73" transform="translate(77.832031 0)"/>
       <use xlink:href="#LiberationSans-65" transform="translate(127.832031 0)"/>
       <use xlink:href="#LiberationSans-61" transform="translate(183.447266 0)"/>
       <use xlink:href="#LiberationSans-73" transform="translate(239.0625 0)"/>
       <use xlink:href="#LiberationSans-65" transform="translate(289.0625 0)"/>
       <use xlink:href="#LiberationSans-20" transform="translate(344.677734 0)"/>
       <use xlink:href="#LiberationSans-73" transform="translate(372.460938 0)"/>
       <use xlink:href="#LiberationSans-74" transform="translate(422.460938 0)"/>
       <use xlink:href="#LiberationSans-61" transform="translate(450.244141 0)"/>
       <use xlink:href="#LiberationSans-74" transform="translate(505.859375 0)"/>
       <use xlink:href="#LiberationSans-65" transform="translate(533.642578 0)"/>
      </g>
     </g>
    </g>
    <g id="xtick_4">
     <g id="line2d_6"/>
     <g id="text_4">
      <!-- cell type -->
      <g style="fill: #262626" transform="translate(153.541907 450.537788) rotate(-45) scale(0.06 -0.06)">
       <defs>
        <path id="LiberationSans-6c" d="M 431 0 
L 431 4638 
L 994 4638 
L 994 0 
L 431 0 
z
" transform="scale(0.015625)"/>
        <path id="LiberationSans-79" d="M 597 -1328 
Q 366 -1328 209 -1294 
L 209 -872 
Q 328 -891 472 -891 
Q 997 -891 1303 -119 
L 1356 16 
L 16 3381 
L 616 3381 
L 1328 1513 
Q 1344 1469 1366 1408 
Q 1388 1347 1506 1000 
Q 1625 653 1634 613 
L 1853 1228 
L 2594 3381 
L 3188 3381 
L 1888 0 
Q 1678 -541 1497 -805 
Q 1316 -1069 1095 -1198 
Q 875 -1328 597 -1328 
z
" transform="scale(0.015625)"/>
       </defs>
       <use xlink:href="#LiberationSans-63"/>
       <use xlink:href="#LiberationSans-65" transform="translate(50 0)"/>
       <use xlink:href="#LiberationSans-6c" transform="translate(105.615234 0)"/>
       <use xlink:href="#LiberationSans-6c" transform="translate(127.832031 0)"/>
       <use xlink:href="#LiberationSans-20" transform="translate(150.048828 0)"/>
       <use xlink:href="#LiberationSans-74" transform="translate(177.832031 0)"/>
       <use xlink:href="#LiberationSans-79" transform="translate(205.615234 0)"/>
       <use xlink:href="#LiberationSans-70" transform="translate(255.615234 0)"/>
       <use xlink:href="#LiberationSans-65" transform="translate(311.230469 0)"/>
      </g>
     </g>
    </g>
    <g id="xtick_5">
     <g id="line2d_7"/>
     <g id="text_5">
      <!-- cell line -->
      <g style="fill: #262626" transform="translate(184.574745 449.123132) rotate(-45) scale(0.06 -0.06)">
       <defs>
        <path id="LiberationSans-6e" d="M 2578 0 
L 2578 2144 
Q 2578 2478 2512 2662 
Q 2447 2847 2303 2928 
Q 2159 3009 1881 3009 
Q 1475 3009 1240 2731 
Q 1006 2453 1006 1959 
L 1006 0 
L 444 0 
L 444 2659 
Q 444 3250 425 3381 
L 956 3381 
Q 959 3366 962 3297 
Q 966 3228 970 3139 
Q 975 3050 981 2803 
L 991 2803 
Q 1184 3153 1439 3298 
Q 1694 3444 2072 3444 
Q 2628 3444 2886 3167 
Q 3144 2891 3144 2253 
L 3144 0 
L 2578 0 
z
" transform="scale(0.015625)"/>
       </defs>
       <use xlink:href="#LiberationSans-63"/>
       <use xlink:href="#LiberationSans-65" transform="translate(50 0)"/>
       <use xlink:href="#LiberationSans-6c" transform="translate(105.615234 0)"/>
       <use xlink:href="#LiberationSans-6c" transform="translate(127.832031 0)"/>
       <use xlink:href="#LiberationSans-20" transform="translate(150.048828 0)"/>
       <use xlink:href="#LiberationSans-6c" transform="translate(177.832031 0)"/>
       <use xlink:href="#LiberationSans-69" transform="translate(200.048828 0)"/>
       <use xlink:href="#LiberationSans-6e" transform="translate(222.265625 0)"/>
       <use xlink:href="#LiberationSans-65" transform="translate(277.880859 0)"/>
      </g>
     </g>
    </g>
    <g id="xtick_6">
     <g id="line2d_8"/>
     <g id="text_6">
      <!-- sex -->
      <g style="fill: #262626" transform="translate(221.739524 441.576535) rotate(-45) scale(0.06 -0.06)">
       <defs>
        <path id="LiberationSans-78" d="M 2503 0 
L 1594 1388 
L 678 0 
L 72 0 
L 1275 1738 
L 128 3381 
L 750 3381 
L 1594 2066 
L 2431 3381 
L 3059 3381 
L 1913 1744 
L 3131 0 
L 2503 0 
z
" transform="scale(0.015625)"/>
       </defs>
       <use xlink:href="#LiberationSans-73"/>
       <use xlink:href="#LiberationSans-65" transform="translate(50 0)"/>
       <use xlink:href="#LiberationSans-78" transform="translate(105.615234 0)"/>
      </g>
     </g>
    </g>
    <g id="xtick_7">
     <g id="line2d_9"/>
     <g id="text_7">
      <!-- age -->
      <g style="fill: #262626" transform="translate(250.881734 442.052507) rotate(-45) scale(0.06 -0.06)">
       <defs>
        <path id="LiberationSans-67" d="M 1713 -1328 
Q 1159 -1328 831 -1111 
Q 503 -894 409 -494 
L 975 -413 
Q 1031 -647 1223 -773 
Q 1416 -900 1728 -900 
Q 2569 -900 2569 84 
L 2569 628 
L 2563 628 
Q 2403 303 2125 139 
Q 1847 -25 1475 -25 
Q 853 -25 561 387 
Q 269 800 269 1684 
Q 269 2581 583 3007 
Q 897 3434 1538 3434 
Q 1897 3434 2161 3270 
Q 2425 3106 2569 2803 
L 2575 2803 
Q 2575 2897 2587 3128 
Q 2600 3359 2613 3381 
L 3147 3381 
Q 3128 3213 3128 2681 
L 3128 97 
Q 3128 -1328 1713 -1328 
z
M 2569 1691 
Q 2569 2103 2456 2401 
Q 2344 2700 2139 2858 
Q 1934 3016 1675 3016 
Q 1244 3016 1047 2703 
Q 850 2391 850 1691 
Q 850 997 1034 694 
Q 1219 391 1666 391 
Q 1931 391 2137 547 
Q 2344 703 2456 995 
Q 2569 1288 2569 1691 
z
" transform="scale(0.015625)"/>
       </defs>
       <use xlink:href="#LiberationSans-61"/>
       <use xlink:href="#LiberationSans-67" transform="translate(55.615234 0)"/>
       <use xlink:href="#LiberationSans-65" transform="translate(111.230469 0)"/>
      </g>
     </g>
    </g>
    <g id="xtick_8">
     <g id="line2d_10"/>
     <g id="text_8">
      <!-- acquisition method -->
      <g style="fill: #262626" transform="translate(252.203491 470.348931) rotate(-45) scale(0.06 -0.06)">
       <defs>
        <path id="LiberationSans-71" d="M 1513 -63 
Q 869 -63 569 371 
Q 269 806 269 1675 
Q 269 3444 1513 3444 
Q 1897 3444 2147 3308 
Q 2397 3172 2566 2856 
L 2572 2856 
Q 2572 2950 2584 3179 
Q 2597 3409 2609 3425 
L 3150 3425 
Q 3128 3241 3128 2503 
L 3128 -1328 
L 2566 -1328 
L 2566 44 
L 2578 556 
L 2572 556 
Q 2403 222 2156 79 
Q 1909 -63 1513 -63 
z
M 2566 1731 
Q 2566 2391 2350 2709 
Q 2134 3028 1663 3028 
Q 1234 3028 1046 2709 
Q 859 2391 859 1694 
Q 859 984 1048 678 
Q 1238 372 1656 372 
Q 2134 372 2350 712 
Q 2566 1053 2566 1731 
z
" transform="scale(0.015625)"/>
        <path id="LiberationSans-6f" d="M 3291 1694 
Q 3291 806 2900 371 
Q 2509 -63 1766 -63 
Q 1025 -63 647 389 
Q 269 841 269 1694 
Q 269 3444 1784 3444 
Q 2559 3444 2925 3017 
Q 3291 2591 3291 1694 
z
M 2700 1694 
Q 2700 2394 2492 2711 
Q 2284 3028 1794 3028 
Q 1300 3028 1079 2704 
Q 859 2381 859 1694 
Q 859 1025 1076 689 
Q 1294 353 1759 353 
Q 2266 353 2483 678 
Q 2700 1003 2700 1694 
z
" transform="scale(0.015625)"/>
        <path id="LiberationSans-6d" d="M 2400 0 
L 2400 2144 
Q 2400 2634 2265 2821 
Q 2131 3009 1781 3009 
Q 1422 3009 1212 2734 
Q 1003 2459 1003 1959 
L 1003 0 
L 444 0 
L 444 2659 
Q 444 3250 425 3381 
L 956 3381 
Q 959 3366 962 3297 
Q 966 3228 970 3139 
Q 975 3050 981 2803 
L 991 2803 
Q 1172 3163 1406 3303 
Q 1641 3444 1978 3444 
Q 2363 3444 2586 3291 
Q 2809 3138 2897 2803 
L 2906 2803 
Q 3081 3144 3329 3294 
Q 3578 3444 3931 3444 
Q 4444 3444 4676 3166 
Q 4909 2888 4909 2253 
L 4909 0 
L 4353 0 
L 4353 2144 
Q 4353 2634 4218 2821 
Q 4084 3009 3734 3009 
Q 3366 3009 3161 2736 
Q 2956 2463 2956 1959 
L 2956 0 
L 2400 0 
z
" transform="scale(0.015625)"/>
        <path id="LiberationSans-68" d="M 991 2803 
Q 1172 3134 1426 3289 
Q 1681 3444 2072 3444 
Q 2622 3444 2883 3170 
Q 3144 2897 3144 2253 
L 3144 0 
L 2578 0 
L 2578 2144 
Q 2578 2500 2512 2673 
Q 2447 2847 2297 2928 
Q 2147 3009 1881 3009 
Q 1484 3009 1245 2734 
Q 1006 2459 1006 1994 
L 1006 0 
L 444 0 
L 444 4638 
L 1006 4638 
L 1006 3431 
Q 1006 3241 995 3037 
Q 984 2834 981 2803 
L 991 2803 
z
" transform="scale(0.015625)"/>
       </defs>
       <use xlink:href="#LiberationSans-61"/>
       <use xlink:href="#LiberationSans-63" transform="translate(55.615234 0)"/>
       <use xlink:href="#LiberationSans-71" transform="translate(105.615234 0)"/>
       <use xlink:href="#LiberationSans-75" transform="translate(161.230469 0)"/>
       <use xlink:href="#LiberationSans-69" transform="translate(216.845703 0)"/>
       <use xlink:href="#LiberationSans-73" transform="translate(239.0625 0)"/>
       <use xlink:href="#LiberationSans-69" transform="translate(289.0625 0)"/>
       <use xlink:href="#LiberationSans-74" transform="translate(311.279297 0)"/>
       <use xlink:href="#LiberationSans-69" transform="translate(339.0625 0)"/>
       <use xlink:href="#LiberationSans-6f" transform="translate(361.279297 0)"/>
       <use xlink:href="#LiberationSans-6e" transform="translate(416.894531 0)"/>
       <use xlink:href="#LiberationSans-20" transform="translate(472.509766 0)"/>
       <use xlink:href="#LiberationSans-6d" transform="translate(500.292969 0)"/>
       <use xlink:href="#LiberationSans-65" transform="translate(583.59375 0)"/>
       <use xlink:href="#LiberationSans-74" transform="translate(639.208984 0)"/>
       <use xlink:href="#LiberationSans-68" transform="translate(666.992188 0)"/>
       <use xlink:href="#LiberationSans-6f" transform="translate(722.607422 0)"/>
       <use xlink:href="#LiberationSans-64" transform="translate(778.222656 0)"/>
      </g>
     </g>
    </g>
    <g id="xtick_9">
     <g id="line2d_11"/>
     <g id="text_9">
      <!-- instrument -->
      <g style="fill: #262626" transform="translate(297.390839 454.779766) rotate(-45) scale(0.06 -0.06)">
       <defs>
        <path id="LiberationSans-72" d="M 444 0 
L 444 2594 
Q 444 2950 425 3381 
L 956 3381 
Q 981 2806 981 2691 
L 994 2691 
Q 1128 3125 1303 3284 
Q 1478 3444 1797 3444 
Q 1909 3444 2025 3413 
L 2025 2897 
Q 1913 2928 1725 2928 
Q 1375 2928 1190 2626 
Q 1006 2325 1006 1763 
L 1006 0 
L 444 0 
z
" transform="scale(0.015625)"/>
       </defs>
       <use xlink:href="#LiberationSans-69"/>
       <use xlink:href="#LiberationSans-6e" transform="translate(22.216797 0)"/>
       <use xlink:href="#LiberationSans-73" transform="translate(77.832031 0)"/>
       <use xlink:href="#LiberationSans-74" transform="translate(127.832031 0)"/>
       <use xlink:href="#LiberationSans-72" transform="translate(155.615234 0)"/>
       <use xlink:href="#LiberationSans-75" transform="translate(188.916016 0)"/>
       <use xlink:href="#LiberationSans-6d" transform="translate(244.53125 0)"/>
       <use xlink:href="#LiberationSans-65" transform="translate(327.832031 0)"/>
       <use xlink:href="#LiberationSans-6e" transform="translate(383.447266 0)"/>
       <use xlink:href="#LiberationSans-74" transform="translate(439.0625 0)"/>
      </g>
     </g>
    </g>
    <g id="xtick_10">
     <g id="line2d_12"/>
     <g id="text_10">
      <!-- labeling -->
      <g style="fill: #262626" transform="translate(332.189682 449.599104) rotate(-45) scale(0.06 -0.06)">
       <defs>
        <path id="LiberationSans-62" d="M 3291 1706 
Q 3291 -63 2047 -63 
Q 1663 -63 1408 76 
Q 1153 216 994 525 
L 988 525 
Q 988 428 975 229 
Q 963 31 956 0 
L 413 0 
Q 431 169 431 697 
L 431 4638 
L 994 4638 
L 994 3316 
Q 994 3113 981 2838 
L 994 2838 
Q 1150 3163 1408 3303 
Q 1666 3444 2047 3444 
Q 2688 3444 2989 3012 
Q 3291 2581 3291 1706 
z
M 2700 1688 
Q 2700 2397 2512 2703 
Q 2325 3009 1903 3009 
Q 1428 3009 1211 2684 
Q 994 2359 994 1653 
Q 994 988 1206 670 
Q 1419 353 1897 353 
Q 2322 353 2511 667 
Q 2700 981 2700 1688 
z
" transform="scale(0.015625)"/>
       </defs>
       <use xlink:href="#LiberationSans-6c"/>
       <use xlink:href="#LiberationSans-61" transform="translate(22.216797 0)"/>
       <use xlink:href="#LiberationSans-62" transform="translate(77.832031 0)"/>
       <use xlink:href="#LiberationSans-65" transform="translate(133.447266 0)"/>
       <use xlink:href="#LiberationSans-6c" transform="translate(189.0625 0)"/>
       <use xlink:href="#LiberationSans-69" transform="translate(211.279297 0)"/>
       <use xlink:href="#LiberationSans-6e" transform="translate(233.496094 0)"/>
       <use xlink:href="#LiberationSans-67" transform="translate(289.111328 0)"/>
      </g>
     </g>
    </g>
    <g id="xtick_11">
     <g id="line2d_13"/>
     <g id="text_11">
      <!-- fragmentation method -->
      <g style="fill: #262626" transform="translate(335.163418 476.24355) rotate(-45) scale(0.06 -0.06)">
       <defs>
        <path id="LiberationSans-66" d="M 1128 2972 
L 1128 0 
L 566 0 
L 566 2972 
L 91 2972 
L 91 3381 
L 566 3381 
L 566 3763 
Q 566 4225 769 4428 
Q 972 4631 1391 4631 
Q 1625 4631 1788 4594 
L 1788 4166 
Q 1647 4191 1538 4191 
Q 1322 4191 1225 4081 
Q 1128 3972 1128 3684 
L 1128 3381 
L 1788 3381 
L 1788 2972 
L 1128 2972 
z
" transform="scale(0.015625)"/>
       </defs>
       <use xlink:href="#LiberationSans-66"/>
       <use xlink:href="#LiberationSans-72" transform="translate(27.783203 0)"/>
       <use xlink:href="#LiberationSans-61" transform="translate(61.083984 0)"/>
       <use xlink:href="#LiberationSans-67" transform="translate(116.699219 0)"/>
       <use xlink:href="#LiberationSans-6d" transform="translate(172.314453 0)"/>
       <use xlink:href="#LiberationSans-65" transform="translate(255.615234 0)"/>
       <use xlink:href="#LiberationSans-6e" transform="translate(311.230469 0)"/>
       <use xlink:href="#LiberationSans-74" transform="translate(366.845703 0)"/>
       <use xlink:href="#LiberationSans-61" transform="translate(394.628906 0)"/>
       <use xlink:href="#LiberationSans-74" transform="translate(450.244141 0)"/>
       <use xlink:href="#LiberationSans-69" transform="translate(478.027344 0)"/>
       <use xlink:href="#LiberationSans-6f" transform="translate(500.244141 0)"/>
       <use xlink:href="#LiberationSans-6e" transform="translate(555.859375 0)"/>
       <use xlink:href="#LiberationSans-20" transform="translate(611.474609 0)"/>
       <use xlink:href="#LiberationSans-6d" transform="translate(639.257812 0)"/>
       <use xlink:href="#LiberationSans-65" transform="translate(722.558594 0)"/>
       <use xlink:href="#LiberationSans-74" transform="translate(778.173828 0)"/>
       <use xlink:href="#LiberationSans-68" transform="translate(805.957031 0)"/>
       <use xlink:href="#LiberationSans-6f" transform="translate(861.572266 0)"/>
       <use xlink:href="#LiberationSans-64" transform="translate(917.1875 0)"/>
      </g>
     </g>
    </g>
    <g id="xtick_12">
     <g id="line2d_14"/>
     <g id="text_12">
      <!-- cleavage agent -->
      <g style="fill: #262626" transform="translate(377.274188 463.750962) rotate(-45) scale(0.06 -0.06)">
       <defs>
        <path id="LiberationSans-76" d="M 1916 0 
L 1250 0 
L 22 3381 
L 622 3381 
L 1366 1181 
Q 1406 1056 1581 441 
L 1691 806 
L 1813 1175 
L 2581 3381 
L 3178 3381 
L 1916 0 
z
" transform="scale(0.015625)"/>
       </defs>
       <use xlink:href="#LiberationSans-63"/>
       <use xlink:href="#LiberationSans-6c" transform="translate(50 0)"/>
       <use xlink:href="#LiberationSans-65" transform="translate(72.216797 0)"/>
       <use xlink:href="#LiberationSans-61" transform="translate(127.832031 0)"/>
       <use xlink:href="#LiberationSans-76" transform="translate(183.447266 0)"/>
       <use xlink:href="#LiberationSans-61" transform="translate(233.447266 0)"/>
       <use xlink:href="#LiberationSans-67" transform="translate(289.0625 0)"/>
       <use xlink:href="#LiberationSans-65" transform="translate(344.677734 0)"/>
       <use xlink:href="#LiberationSans-20" transform="translate(400.292969 0)"/>
       <use xlink:href="#LiberationSans-61" transform="translate(428.076172 0)"/>
       <use xlink:href="#LiberationSans-67" transform="translate(483.691406 0)"/>
       <use xlink:href="#LiberationSans-65" transform="translate(539.306641 0)"/>
       <use xlink:href="#LiberationSans-6e" transform="translate(594.921875 0)"/>
       <use xlink:href="#LiberationSans-74" transform="translate(650.537109 0)"/>
      </g>
     </g>
    </g>
    <g id="xtick_13">
     <g id="line2d_15"/>
     <g id="text_13">
      <!-- enrichment method -->
      <g style="fill: #262626" transform="translate(399.35439 471.288941) rotate(-45) scale(0.06 -0.06)">
       <use xlink:href="#LiberationSans-65"/>
       <use xlink:href="#LiberationSans-6e" transform="translate(55.615234 0)"/>
       <use xlink:href="#LiberationSans-72" transform="translate(111.230469 0)"/>
       <use xlink:href="#LiberationSans-69" transform="translate(144.53125 0)"/>
       <use xlink:href="#LiberationSans-63" transform="translate(166.748047 0)"/>
       <use xlink:href="#LiberationSans-68" transform="translate(216.748047 0)"/>
       <use xlink:href="#LiberationSans-6d" transform="translate(272.363281 0)"/>
       <use xlink:href="#LiberationSans-65" transform="translate(355.664062 0)"/>
       <use xlink:href="#LiberationSans-6e" transform="translate(411.279297 0)"/>
       <use xlink:href="#LiberationSans-74" transform="translate(466.894531 0)"/>
       <use xlink:href="#LiberationSans-20" transform="translate(494.677734 0)"/>
       <use xlink:href="#LiberationSans-6d" transform="translate(522.460938 0)"/>
       <use xlink:href="#LiberationSans-65" transform="translate(605.761719 0)"/>
       <use xlink:href="#LiberationSans-74" transform="translate(661.376953 0)"/>
       <use xlink:href="#LiberationSans-68" transform="translate(689.160156 0)"/>
       <use xlink:href="#LiberationSans-6f" transform="translate(744.775391 0)"/>
       <use xlink:href="#LiberationSans-64" transform="translate(800.390625 0)"/>
      </g>
     </g>
    </g>
    <g id="xtick_14">
     <g id="line2d_16"/>
     <g id="text_14">
      <!-- reduction reagent -->
      <g style="fill: #262626" transform="translate(432.268574 467.99294) rotate(-45) scale(0.06 -0.06)">
       <use xlink:href="#LiberationSans-72"/>
       <use xlink:href="#LiberationSans-65" transform="translate(33.300781 0)"/>
       <use xlink:href="#LiberationSans-64" transform="translate(88.916016 0)"/>
       <use xlink:href="#LiberationSans-75" transform="translate(144.53125 0)"/>
       <use xlink:href="#LiberationSans-63" transform="translate(200.146484 0)"/>
       <use xlink:href="#LiberationSans-74" transform="translate(250.146484 0)"/>
       <use xlink:href="#LiberationSans-69" transform="translate(277.929688 0)"/>
       <use xlink:href="#LiberationSans-6f" transform="translate(300.146484 0)"/>
       <use xlink:href="#LiberationSans-6e" transform="translate(355.761719 0)"/>
       <use xlink:href="#LiberationSans-20" transform="translate(411.376953 0)"/>
       <use xlink:href="#LiberationSans-72" transform="translate(439.160156 0)"/>
       <use xlink:href="#LiberationSans-65" transform="translate(472.460938 0)"/>
       <use xlink:href="#LiberationSans-61" transform="translate(528.076172 0)"/>
       <use xlink:href="#LiberationSans-67" transform="translate(583.691406 0)"/>
       <use xlink:href="#LiberationSans-65" transform="translate(639.306641 0)"/>
       <use xlink:href="#LiberationSans-6e" transform="translate(694.921875 0)"/>
       <use xlink:href="#LiberationSans-74" transform="translate(750.537109 0)"/>
      </g>
     </g>
    </g>
    <g id="xtick_15">
     <g id="line2d_17"/>
     <g id="text_15">
      <!-- alkylation reagent -->
      <g style="fill: #262626" transform="translate(461.652084 468.227611) rotate(-45) scale(0.06 -0.06)">
       <defs>
        <path id="LiberationSans-6b" d="M 2550 0 
L 1406 1544 
L 994 1203 
L 994 0 
L 431 0 
L 431 4638 
L 994 4638 
L 994 1741 
L 2478 3381 
L 3138 3381 
L 1766 1928 
L 3209 0 
L 2550 0 
z
" transform="scale(0.015625)"/>
       </defs>
       <use xlink:href="#LiberationSans-61"/>
       <use xlink:href="#LiberationSans-6c" transform="translate(55.615234 0)"/>
       <use xlink:href="#LiberationSans-6b" transform="translate(77.832031 0)"/>
       <use xlink:href="#LiberationSans-79" transform="translate(127.832031 0)"/>
       <use xlink:href="#LiberationSans-6c" transform="translate(177.832031 0)"/>
       <use xlink:href="#LiberationSans-61" transform="translate(200.048828 0)"/>
       <use xlink:href="#LiberationSans-74" transform="translate(255.664062 0)"/>
       <use xlink:href="#LiberationSans-69" transform="translate(283.447266 0)"/>
       <use xlink:href="#LiberationSans-6f" transform="translate(305.664062 0)"/>
       <use xlink:href="#LiberationSans-6e" transform="translate(361.279297 0)"/>
       <use xlink:href="#LiberationSans-20" transform="translate(416.894531 0)"/>
       <use xlink:href="#LiberationSans-72" transform="translate(444.677734 0)"/>
       <use xlink:href="#LiberationSans-65" transform="translate(477.978516 0)"/>
       <use xlink:href="#LiberationSans-61" transform="translate(533.59375 0)"/>
       <use xlink:href="#LiberationSans-67" transform="translate(589.208984 0)"/>
       <use xlink:href="#LiberationSans-65" transform="translate(644.824219 0)"/>
       <use xlink:href="#LiberationSans-6e" transform="translate(700.439453 0)"/>
       <use xlink:href="#LiberationSans-74" transform="translate(756.054688 0)"/>
      </g>
     </g>
    </g>
    <g id="xtick_16">
     <g id="line2d_18"/>
     <g id="text_16">
      <!-- collision energy -->
      <g style="fill: #262626" transform="translate(495.282213 464.215664) rotate(-45) scale(0.06 -0.06)">
       <use xlink:href="#LiberationSans-63"/>
       <use xlink:href="#LiberationSans-6f" transform="translate(50 0)"/>
       <use xlink:href="#LiberationSans-6c" transform="translate(105.615234 0)"/>
       <use xlink:href="#LiberationSans-6c" transform="translate(127.832031 0)"/>
       <use xlink:href="#LiberationSans-69" transform="translate(150.048828 0)"/>
       <use xlink:href="#LiberationSans-73" transform="translate(172.265625 0)"/>
       <use xlink:href="#LiberationSans-69" transform="translate(222.265625 0)"/>
       <use xlink:href="#LiberationSans-6f" transform="translate(244.482422 0)"/>
       <use xlink:href="#LiberationSans-6e" transform="translate(300.097656 0)"/>
       <use xlink:href="#LiberationSans-20" transform="translate(355.712891 0)"/>
       <use xlink:href="#LiberationSans-65" transform="translate(383.496094 0)"/>
       <use xlink:href="#LiberationSans-6e" transform="translate(439.111328 0)"/>
       <use xlink:href="#LiberationSans-65" transform="translate(494.726562 0)"/>
       <use xlink:href="#LiberationSans-72" transform="translate(550.341797 0)"/>
       <use xlink:href="#LiberationSans-67" transform="translate(583.642578 0)"/>
       <use xlink:href="#LiberationSans-79" transform="translate(639.257812 0)"/>
      </g>
     </g>
    </g>
    <g id="xtick_17">
     <g id="line2d_19"/>
     <g id="text_17">
      <!-- mass analyzer -->
      <g style="fill: #262626" transform="translate(526.791685 462.324374) rotate(-45) scale(0.06 -0.06)">
       <defs>
        <path id="LiberationSans-7a" d="M 259 0 
L 259 428 
L 2150 2947 
L 366 2947 
L 366 3381 
L 2816 3381 
L 2816 2953 
L 922 434 
L 2881 434 
L 2881 0 
L 259 0 
z
" transform="scale(0.015625)"/>
       </defs>
       <use xlink:href="#LiberationSans-6d"/>
       <use xlink:href="#LiberationSans-61" transform="translate(83.300781 0)"/>
       <use xlink:href="#LiberationSans-73" transform="translate(138.916016 0)"/>
       <use xlink:href="#LiberationSans-73" transform="translate(188.916016 0)"/>
       <use xlink:href="#LiberationSans-20" transform="translate(238.916016 0)"/>
       <use xlink:href="#LiberationSans-61" transform="translate(266.699219 0)"/>
       <use xlink:href="#LiberationSans-6e" transform="translate(322.314453 0)"/>
       <use xlink:href="#LiberationSans-61" transform="translate(377.929688 0)"/>
       <use xlink:href="#LiberationSans-6c" transform="translate(433.544922 0)"/>
       <use xlink:href="#LiberationSans-79" transform="translate(455.761719 0)"/>
       <use xlink:href="#LiberationSans-7a" transform="translate(505.761719 0)"/>
       <use xlink:href="#LiberationSans-65" transform="translate(555.761719 0)"/>
       <use xlink:href="#LiberationSans-72" transform="translate(611.376953 0)"/>
      </g>
     </g>
    </g>
    <g id="xtick_18">
     <g id="line2d_20"/>
     <g id="text_18">
      <!-- ptm -->
      <g style="fill: #262626" transform="translate(576.6877 442.04654) rotate(-45) scale(0.06 -0.06)">
       <use xlink:href="#LiberationSans-70"/>
       <use xlink:href="#LiberationSans-74" transform="translate(55.615234 0)"/>
       <use xlink:href="#LiberationSans-6d" transform="translate(83.398438 0)"/>
      </g>
     </g>
    </g>
    <g id="xtick_19">
     <g id="line2d_21"/>
     <g id="text_19">
      <!-- number of biological replicates -->
      <g style="fill: #262626" transform="translate(556.075005 492.277417) rotate(-45) scale(0.06 -0.06)">
       <use xlink:href="#LiberationSans-6e"/>
       <use xlink:href="#LiberationSans-75" transform="translate(55.615234 0)"/>
       <use xlink:href="#LiberationSans-6d" transform="translate(111.230469 0)"/>
       <use xlink:href="#LiberationSans-62" transform="translate(194.53125 0)"/>
       <use xlink:href="#LiberationSans-65" transform="translate(250.146484 0)"/>
       <use xlink:href="#LiberationSans-72" transform="translate(305.761719 0)"/>
       <use xlink:href="#LiberationSans-20" transform="translate(339.0625 0)"/>
       <use xlink:href="#LiberationSans-6f" transform="translate(366.845703 0)"/>
       <use xlink:href="#LiberationSans-66" transform="translate(422.460938 0)"/>
       <use xlink:href="#LiberationSans-20" transform="translate(450.244141 0)"/>
       <use xlink:href="#LiberationSans-62" transform="translate(478.027344 0)"/>
       <use xlink:href="#LiberationSans-69" transform="translate(533.642578 0)"/>
       <use xlink:href="#LiberationSans-6f" transform="translate(555.859375 0)"/>
       <use xlink:href="#LiberationSans-6c" transform="translate(611.474609 0)"/>
       <use xlink:href="#LiberationSans-6f" transform="translate(633.691406 0)"/>
       <use xlink:href="#LiberationSans-67" transform="translate(689.306641 0)"/>
       <use xlink:href="#LiberationSans-69" transform="translate(744.921875 0)"/>
       <use xlink:href="#LiberationSans-63" transform="translate(767.138672 0)"/>
       <use xlink:href="#LiberationSans-61" transform="translate(817.138672 0)"/>
       <use xlink:href="#LiberationSans-6c" transform="translate(872.753906 0)"/>
       <use xlink:href="#LiberationSans-20" transform="translate(894.970703 0)"/>
       <use xlink:href="#LiberationSans-72" transform="translate(922.753906 0)"/>
       <use xlink:href="#LiberationSans-65" transform="translate(956.054688 0)"/>
       <use xlink:href="#LiberationSans-70" transform="translate(1011.669922 0)"/>
       <use xlink:href="#LiberationSans-6c" transform="translate(1067.285156 0)"/>
       <use xlink:href="#LiberationSans-69" transform="translate(1089.501953 0)"/>
       <use xlink:href="#LiberationSans-63" transform="translate(1111.71875 0)"/>
       <use xlink:href="#LiberationSans-61" transform="translate(1161.71875 0)"/>
       <use xlink:href="#LiberationSans-74" transform="translate(1217.333984 0)"/>
       <use xlink:href="#LiberationSans-65" transform="translate(1245.117188 0)"/>
       <use xlink:href="#LiberationSans-73" transform="translate(1300.732422 0)"/>
      </g>
     </g>
    </g>
    <g id="xtick_20">
     <g id="line2d_22"/>
     <g id="text_20">
      <!-- number of technical replicates -->
      <g style="fill: #262626" transform="translate(586.637837 491.332767) rotate(-45) scale(0.06 -0.06)">
       <use xlink:href="#LiberationSans-6e"/>
       <use xlink:href="#LiberationSans-75" transform="translate(55.615234 0)"/>
       <use xlink:href="#LiberationSans-6d" transform="translate(111.230469 0)"/>
       <use xlink:href="#LiberationSans-62" transform="translate(194.53125 0)"/>
       <use xlink:href="#LiberationSans-65" transform="translate(250.146484 0)"/>
       <use xlink:href="#LiberationSans-72" transform="translate(305.761719 0)"/>
       <use xlink:href="#LiberationSans-20" transform="translate(339.0625 0)"/>
       <use xlink:href="#LiberationSans-6f" transform="translate(366.845703 0)"/>
       <use xlink:href="#LiberationSans-66" transform="translate(422.460938 0)"/>
       <use xlink:href="#LiberationSans-20" transform="translate(450.244141 0)"/>
       <use xlink:href="#LiberationSans-74" transform="translate(478.027344 0)"/>
       <use xlink:href="#LiberationSans-65" transform="translate(505.810547 0)"/>
       <use xlink:href="#LiberationSans-63" transform="translate(561.425781 0)"/>
       <use xlink:href="#LiberationSans-68" transform="translate(611.425781 0)"/>
       <use xlink:href="#LiberationSans-6e" transform="translate(667.041016 0)"/>
       <use xlink:href="#LiberationSans-69" transform="translate(722.65625 0)"/>
       <use xlink:href="#LiberationSans-63" transform="translate(744.873047 0)"/>
       <use xlink:href="#LiberationSans-61" transform="translate(794.873047 0)"/>
       <use xlink:href="#LiberationSans-6c" transform="translate(850.488281 0)"/>
       <use xlink:href="#LiberationSans-20" transform="translate(872.705078 0)"/>
       <use xlink:href="#LiberationSans-72" transform="translate(900.488281 0)"/>
       <use xlink:href="#LiberationSans-65" transform="translate(933.789062 0)"/>
       <use xlink:href="#LiberationSans-70" transform="translate(989.404297 0)"/>
       <use xlink:href="#LiberationSans-6c" transform="translate(1045.019531 0)"/>
       <use xlink:href="#LiberationSans-69" transform="translate(1067.236328 0)"/>
       <use xlink:href="#LiberationSans-63" transform="translate(1089.453125 0)"/>
       <use xlink:href="#LiberationSans-61" transform="translate(1139.453125 0)"/>
       <use xlink:href="#LiberationSans-74" transform="translate(1195.068359 0)"/>
       <use xlink:href="#LiberationSans-65" transform="translate(1222.851562 0)"/>
       <use xlink:href="#LiberationSans-73" transform="translate(1278.466797 0)"/>
      </g>
     </g>
    </g>
    <g id="xtick_21">
     <g id="line2d_23"/>
     <g id="text_21">
      <!-- number of fractions -->
      <g style="fill: #262626" transform="translate(636.301834 471.286953) rotate(-45) scale(0.06 -0.06)">
       <use xlink:href="#LiberationSans-6e"/>
       <use xlink:href="#LiberationSans-75" transform="translate(55.615234 0)"/>
       <use xlink:href="#LiberationSans-6d" transform="translate(111.230469 0)"/>
       <use xlink:href="#LiberationSans-62" transform="translate(194.53125 0)"/>
       <use xlink:href="#LiberationSans-65" transform="translate(250.146484 0)"/>
       <use xlink:href="#LiberationSans-72" transform="translate(305.761719 0)"/>
       <use xlink:href="#LiberationSans-20" transform="translate(339.0625 0)"/>
       <use xlink:href="#LiberationSans-6f" transform="translate(366.845703 0)"/>
       <use xlink:href="#LiberationSans-66" transform="translate(422.460938 0)"/>
       <use xlink:href="#LiberationSans-20" transform="translate(450.244141 0)"/>
       <use xlink:href="#LiberationSans-66" transform="translate(478.027344 0)"/>
       <use xlink:href="#LiberationSans-72" transform="translate(505.810547 0)"/>
       <use xlink:href="#LiberationSans-61" transform="translate(539.111328 0)"/>
       <use xlink:href="#LiberationSans-63" transform="translate(594.726562 0)"/>
       <use xlink:href="#LiberationSans-74" transform="translate(644.726562 0)"/>
       <use xlink:href="#LiberationSans-69" transform="translate(672.509766 0)"/>
       <use xlink:href="#LiberationSans-6f" transform="translate(694.726562 0)"/>
       <use xlink:href="#LiberationSans-6e" transform="translate(750.341797 0)"/>
       <use xlink:href="#LiberationSans-73" transform="translate(805.957031 0)"/>
      </g>
     </g>
    </g>
    <g id="xtick_22">
     <g id="line2d_24"/>
     <g id="text_22">
      <!-- factor value -->
      <g style="fill: #262626" transform="translate(680.301904 456.905064) rotate(-45) scale(0.06 -0.06)">
       <use xlink:href="#LiberationSans-66"/>
       <use xlink:href="#LiberationSans-61" transform="translate(27.783203 0)"/>
       <use xlink:href="#LiberationSans-63" transform="translate(83.398438 0)"/>
       <use xlink:href="#LiberationSans-74" transform="translate(133.398438 0)"/>
       <use xlink:href="#LiberationSans-6f" transform="translate(161.181641 0)"/>
       <use xlink:href="#LiberationSans-72" transform="translate(216.796875 0)"/>
       <use xlink:href="#LiberationSans-20" transform="translate(250.097656 0)"/>
       <use xlink:href="#LiberationSans-76" transform="translate(277.880859 0)"/>
       <use xlink:href="#LiberationSans-61" transform="translate(327.880859 0)"/>
       <use xlink:href="#LiberationSans-6c" transform="translate(383.496094 0)"/>
       <use xlink:href="#LiberationSans-75" transform="translate(405.712891 0)"/>
       <use xlink:href="#LiberationSans-65" transform="translate(461.328125 0)"/>
      </g>
     </g>
    </g>
    <g id="xtick_23">
     <g id="line2d_25"/>
     <g id="text_23">
      <!-- biological replicate -->
      <g style="fill: #262626" transform="translate(696.948212 469.876937) rotate(-45) scale(0.06 -0.06)">
       <use xlink:href="#LiberationSans-62"/>
       <use xlink:href="#LiberationSans-69" transform="translate(55.615234 0)"/>
       <use xlink:href="#LiberationSans-6f" transform="translate(77.832031 0)"/>
       <use xlink:href="#LiberationSans-6c" transform="translate(133.447266 0)"/>
       <use xlink:href="#LiberationSans-6f" transform="translate(155.664062 0)"/>
       <use xlink:href="#LiberationSans-67" transform="translate(211.279297 0)"/>
       <use xlink:href="#LiberationSans-69" transform="translate(266.894531 0)"/>
       <use xlink:href="#LiberationSans-63" transform="translate(289.111328 0)"/>
       <use xlink:href="#LiberationSans-61" transform="translate(339.111328 0)"/>
       <use xlink:href="#LiberationSans-6c" transform="translate(394.726562 0)"/>
       <use xlink:href="#LiberationSans-20" transform="translate(416.943359 0)"/>
       <use xlink:href="#LiberationSans-72" transform="translate(444.726562 0)"/>
       <use xlink:href="#LiberationSans-65" transform="translate(478.027344 0)"/>
       <use xlink:href="#LiberationSans-70" transform="translate(533.642578 0)"/>
       <use xlink:href="#LiberationSans-6c" transform="translate(589.257812 0)"/>
       <use xlink:href="#LiberationSans-69" transform="translate(611.474609 0)"/>
       <use xlink:href="#LiberationSans-63" transform="translate(633.691406 0)"/>
       <use xlink:href="#LiberationSans-61" transform="translate(683.691406 0)"/>
       <use xlink:href="#LiberationSans-74" transform="translate(739.306641 0)"/>
       <use xlink:href="#LiberationSans-65" transform="translate(767.089844 0)"/>
      </g>
     </g>
    </g>
    <g id="xtick_24">
     <g id="line2d_26"/>
     <g id="text_24">
      <!-- technical replicate -->
      <g style="fill: #262626" transform="translate(727.511045 468.932287) rotate(-45) scale(0.06 -0.06)">
       <use xlink:href="#LiberationSans-74"/>
       <use xlink:href="#LiberationSans-65" transform="translate(27.783203 0)"/>
       <use xlink:href="#LiberationSans-63" transform="translate(83.398438 0)"/>
       <use xlink:href="#LiberationSans-68" transform="translate(133.398438 0)"/>
       <use xlink:href="#LiberationSans-6e" transform="translate(189.013672 0)"/>
       <use xlink:href="#LiberationSans-69" transform="translate(244.628906 0)"/>
       <use xlink:href="#LiberationSans-63" transform="translate(266.845703 0)"/>
       <use xlink:href="#LiberationSans-61" transform="translate(316.845703 0)"/>
       <use xlink:href="#LiberationSans-6c" transform="translate(372.460938 0)"/>
       <use xlink:href="#LiberationSans-20" transform="translate(394.677734 0)"/>
       <use xlink:href="#LiberationSans-72" transform="translate(422.460938 0)"/>
       <use xlink:href="#LiberationSans-65" transform="translate(455.761719 0)"/>
       <use xlink:href="#LiberationSans-70" transform="translate(511.376953 0)"/>
       <use xlink:href="#LiberationSans-6c" transform="translate(566.992188 0)"/>
       <use xlink:href="#LiberationSans-69" transform="translate(589.208984 0)"/>
       <use xlink:href="#LiberationSans-63" transform="translate(611.425781 0)"/>
       <use xlink:href="#LiberationSans-61" transform="translate(661.425781 0)"/>
       <use xlink:href="#LiberationSans-74" transform="translate(717.041016 0)"/>
       <use xlink:href="#LiberationSans-65" transform="translate(744.824219 0)"/>
      </g>
     </g>
    </g>
   </g>
   <g id="matplotlib.axis_2">
    <g id="ytick_1">
     <g id="line2d_27"/>
     <g id="text_25">
      <!-- −0.2 -->
      <g style="fill: #262626" transform="translate(40.119375 432.023438) scale(0.1 -0.1)">
       <defs>
        <path id="LiberationSans-2212" d="M 316 1900 
L 316 2356 
L 3425 2356 
L 3425 1900 
L 316 1900 
z
" transform="scale(0.015625)"/>
        <path id="LiberationSans-30" d="M 3309 2203 
Q 3309 1100 2920 518 
Q 2531 -63 1772 -63 
Q 1013 -63 631 515 
Q 250 1094 250 2203 
Q 250 3338 620 3903 
Q 991 4469 1791 4469 
Q 2569 4469 2939 3897 
Q 3309 3325 3309 2203 
z
M 2738 2203 
Q 2738 3156 2517 3584 
Q 2297 4013 1791 4013 
Q 1272 4013 1045 3591 
Q 819 3169 819 2203 
Q 819 1266 1048 831 
Q 1278 397 1778 397 
Q 2275 397 2506 840 
Q 2738 1284 2738 2203 
z
" transform="scale(0.015625)"/>
        <path id="LiberationSans-2e" d="M 584 0 
L 584 684 
L 1194 684 
L 1194 0 
L 584 0 
z
" transform="scale(0.015625)"/>
        <path id="LiberationSans-32" d="M 322 0 
L 322 397 
Q 481 763 711 1042 
Q 941 1322 1194 1548 
Q 1447 1775 1695 1969 
Q 1944 2163 2144 2356 
Q 2344 2550 2467 2762 
Q 2591 2975 2591 3244 
Q 2591 3606 2378 3806 
Q 2166 4006 1788 4006 
Q 1428 4006 1195 3811 
Q 963 3616 922 3263 
L 347 3316 
Q 409 3844 795 4156 
Q 1181 4469 1788 4469 
Q 2453 4469 2811 4155 
Q 3169 3841 3169 3263 
Q 3169 3006 3051 2753 
Q 2934 2500 2703 2247 
Q 2472 1994 1819 1463 
Q 1459 1169 1246 933 
Q 1034 697 941 478 
L 3238 478 
L 3238 0 
L 322 0 
z
" transform="scale(0.015625)"/>
       </defs>
       <use xlink:href="#LiberationSans-2212"/>
       <use xlink:href="#LiberationSans-30" transform="translate(58.398438 0)"/>
       <use xlink:href="#LiberationSans-2e" transform="translate(114.013672 0)"/>
       <use xlink:href="#LiberationSans-32" transform="translate(141.796875 0)"/>
      </g>
     </g>
    </g>
    <g id="ytick_2">
     <g id="line2d_28"/>
     <g id="text_26">
      <!-- 0.0 -->
      <g style="fill: #262626" transform="translate(45.96 362.153437) scale(0.1 -0.1)">
       <use xlink:href="#LiberationSans-30"/>
       <use xlink:href="#LiberationSans-2e" transform="translate(55.615234 0)"/>
       <use xlink:href="#LiberationSans-30" transform="translate(83.398438 0)"/>
      </g>
     </g>
    </g>
    <g id="ytick_3">
     <g id="line2d_29"/>
     <g id="text_27">
      <!-- 0.2 -->
      <g style="fill: #262626" transform="translate(45.96 292.283438) scale(0.1 -0.1)">
       <use xlink:href="#LiberationSans-30"/>
       <use xlink:href="#LiberationSans-2e" transform="translate(55.615234 0)"/>
       <use xlink:href="#LiberationSans-32" transform="translate(83.398438 0)"/>
      </g>
     </g>
    </g>
    <g id="ytick_4">
     <g id="line2d_30"/>
     <g id="text_28">
      <!-- 0.4 -->
      <g style="fill: #262626" transform="translate(45.96 222.413438) scale(0.1 -0.1)">
       <defs>
        <path id="LiberationSans-34" d="M 2753 997 
L 2753 0 
L 2222 0 
L 2222 997 
L 147 997 
L 147 1434 
L 2163 4403 
L 2753 4403 
L 2753 1441 
L 3372 1441 
L 3372 997 
L 2753 997 
z
M 2222 3769 
Q 2216 3750 2134 3603 
Q 2053 3456 2013 3397 
L 884 1734 
L 716 1503 
L 666 1441 
L 2222 1441 
L 2222 3769 
z
" transform="scale(0.015625)"/>
       </defs>
       <use xlink:href="#LiberationSans-30"/>
       <use xlink:href="#LiberationSans-2e" transform="translate(55.615234 0)"/>
       <use xlink:href="#LiberationSans-34" transform="translate(83.398438 0)"/>
      </g>
     </g>
    </g>
    <g id="ytick_5">
     <g id="line2d_31"/>
     <g id="text_29">
      <!-- 0.6 -->
      <g style="fill: #262626" transform="translate(45.96 152.543438) scale(0.1 -0.1)">
       <defs>
        <path id="LiberationSans-36" d="M 3278 1441 
Q 3278 744 2900 340 
Q 2522 -63 1856 -63 
Q 1113 -63 719 490 
Q 325 1044 325 2100 
Q 325 3244 734 3856 
Q 1144 4469 1900 4469 
Q 2897 4469 3156 3572 
L 2619 3475 
Q 2453 4013 1894 4013 
Q 1413 4013 1148 3564 
Q 884 3116 884 2266 
Q 1038 2550 1316 2698 
Q 1594 2847 1953 2847 
Q 2563 2847 2920 2465 
Q 3278 2084 3278 1441 
z
M 2706 1416 
Q 2706 1894 2472 2153 
Q 2238 2413 1819 2413 
Q 1425 2413 1183 2183 
Q 941 1953 941 1550 
Q 941 1041 1192 716 
Q 1444 391 1838 391 
Q 2244 391 2475 664 
Q 2706 938 2706 1416 
z
" transform="scale(0.015625)"/>
       </defs>
       <use xlink:href="#LiberationSans-30"/>
       <use xlink:href="#LiberationSans-2e" transform="translate(55.615234 0)"/>
       <use xlink:href="#LiberationSans-36" transform="translate(83.398438 0)"/>
      </g>
     </g>
    </g>
    <g id="ytick_6">
     <g id="line2d_32"/>
     <g id="text_30">
      <!-- 0.8 -->
      <g style="fill: #262626" transform="translate(45.96 82.673438) scale(0.1 -0.1)">
       <defs>
        <path id="LiberationSans-38" d="M 3281 1228 
Q 3281 619 2893 278 
Q 2506 -63 1781 -63 
Q 1075 -63 676 271 
Q 278 606 278 1222 
Q 278 1653 525 1947 
Q 772 2241 1156 2303 
L 1156 2316 
Q 797 2400 589 2681 
Q 381 2963 381 3341 
Q 381 3844 757 4156 
Q 1134 4469 1769 4469 
Q 2419 4469 2795 4162 
Q 3172 3856 3172 3334 
Q 3172 2956 2962 2675 
Q 2753 2394 2391 2322 
L 2391 2309 
Q 2813 2241 3047 1952 
Q 3281 1663 3281 1228 
z
M 2588 3303 
Q 2588 4050 1769 4050 
Q 1372 4050 1164 3862 
Q 956 3675 956 3303 
Q 956 2925 1170 2726 
Q 1384 2528 1775 2528 
Q 2172 2528 2380 2711 
Q 2588 2894 2588 3303 
z
M 2697 1281 
Q 2697 1691 2453 1898 
Q 2209 2106 1769 2106 
Q 1341 2106 1100 1882 
Q 859 1659 859 1269 
Q 859 359 1788 359 
Q 2247 359 2472 579 
Q 2697 800 2697 1281 
z
" transform="scale(0.015625)"/>
       </defs>
       <use xlink:href="#LiberationSans-30"/>
       <use xlink:href="#LiberationSans-2e" transform="translate(55.615234 0)"/>
       <use xlink:href="#LiberationSans-38" transform="translate(83.398438 0)"/>
      </g>
     </g>
    </g>
    <g id="ytick_7">
     <g id="line2d_33"/>
     <g id="text_31">
      <!-- 1.0 -->
      <g style="fill: #262626" transform="translate(45.96 12.803438) scale(0.1 -0.1)">
       <defs>
        <path id="LiberationSans-31" d="M 488 0 
L 488 478 
L 1609 478 
L 1609 3866 
L 616 3156 
L 616 3688 
L 1656 4403 
L 2175 4403 
L 2175 478 
L 3247 478 
L 3247 0 
L 488 0 
z
" transform="scale(0.015625)"/>
       </defs>
       <use xlink:href="#LiberationSans-31"/>
       <use xlink:href="#LiberationSans-2e" transform="translate(55.615234 0)"/>
       <use xlink:href="#LiberationSans-30" transform="translate(83.398438 0)"/>
      </g>
     </g>
    </g>
    <g id="text_32">
     <!-- Agreement -->
     <g style="fill: #262626" transform="translate(34.044375 243.24625) rotate(-90) scale(0.1 -0.1)">
      <defs>
       <path id="LiberationSans-41" d="M 3647 0 
L 3144 1288 
L 1138 1288 
L 631 0 
L 13 0 
L 1809 4403 
L 2488 4403 
L 4256 0 
L 3647 0 
z
M 2141 3953 
L 2113 3866 
Q 2034 3606 1881 3200 
L 1319 1753 
L 2966 1753 
L 2400 3206 
Q 2313 3422 2225 3694 
L 2141 3953 
z
" transform="scale(0.015625)"/>
      </defs>
      <use xlink:href="#LiberationSans-41"/>
      <use xlink:href="#LiberationSans-67" transform="translate(66.699219 0)"/>
      <use xlink:href="#LiberationSans-72" transform="translate(122.314453 0)"/>
      <use xlink:href="#LiberationSans-65" transform="translate(155.615234 0)"/>
      <use xlink:href="#LiberationSans-65" transform="translate(211.230469 0)"/>
      <use xlink:href="#LiberationSans-6d" transform="translate(266.845703 0)"/>
      <use xlink:href="#LiberationSans-65" transform="translate(350.146484 0)"/>
      <use xlink:href="#LiberationSans-6e" transform="translate(405.761719 0)"/>
      <use xlink:href="#LiberationSans-74" transform="translate(461.376953 0)"/>
     </g>
    </g>
   </g>
   <g id="line2d_34">
    <path d="M 63.36 358.53 
L 780.12 358.53 
" clip-path="url(#p49fe7894cb)" style="fill: none; stroke: #999999; stroke-width: 0.7; stroke-linecap: round"/>
   </g>
   <g id="patch_3">
    <path d="M 63.36 428.4 
L 63.36 9.18 
" style="fill: none; stroke: #cccccc; stroke-linejoin: miter; stroke-linecap: square"/>
   </g>
   <g id="patch_4">
    <path d="M 780.12 428.4 
L 780.12 9.18 
" style="fill: none; stroke: #cccccc; stroke-linejoin: miter; stroke-linecap: square"/>
   </g>
   <g id="patch_5">
    <path d="M 63.36 428.4 
L 780.12 428.4 
" style="fill: none; stroke: #cccccc; stroke-linejoin: miter; stroke-linecap: square"/>
   </g>
   <g id="patch_6">
    <path d="M 63.36 9.18 
L 780.12 9.18 
" style="fill: none; stroke: #cccccc; stroke-linejoin: miter; stroke-linecap: square"/>
   </g>
   <g id="PathCollection_1">
    <defs>
     <path id="mde245e9529" d="M 0 2.12132 
C 0.562581 2.12132 1.102195 1.897805 1.5 1.5 
C 1.897805 1.102195 2.12132 0.562581 2.12132 0 
C 2.12132 -0.562581 1.897805 -1.102195 1.5 -1.5 
C 1.102195 -1.897805 0.562581 -2.12132 0 -2.12132 
C -0.562581 -2.12132 -1.102195 -1.897805 -1.5 -1.5 
C -1.897805 -1.102195 -2.12132 -0.562581 -2.12132 0 
C -2.12132 0.562581 -1.897805 1.102195 -1.5 1.5 
C -1.102195 1.897805 -0.562581 2.12132 0 2.12132 
z
" style="stroke: #264653"/>
    </defs>
    <g clip-path="url(#p49fe7894cb)">
     <use xlink:href="#mde245e9529" x="81.130909" y="99.6" style="fill: #264653; stroke: #264653"/>
     <use xlink:href="#mde245e9529" x="110.749091" y="82.377143" style="fill: #264653; stroke: #264653"/>
     <use xlink:href="#mde245e9529" x="140.367273" y="169.29875" style="fill: #264653; stroke: #264653"/>
     <use xlink:href="#mde245e9529" x="169.985455" y="329.4175" style="fill: #264653; stroke: #264653"/>
     <use xlink:href="#mde245e9529" x="199.603636" y="99.6" style="fill: #264653; stroke: #264653"/>
     <use xlink:href="#mde245e9529" x="229.221818" y="9.18" style="fill: #264653; stroke: #264653"/>
     <use xlink:href="#mde245e9529" x="258.84" y="99.6" style="fill: #264653; stroke: #264653"/>
     <use xlink:href="#mde245e9529" x="288.458182" y="206.249231" style="fill: #264653; stroke: #264653"/>
     <use xlink:href="#mde245e9529" x="347.694545" y="137.275" style="fill: #264653; stroke: #264653"/>
     <use xlink:href="#mde245e9529" x="377.312727" y="137.275" style="fill: #264653; stroke: #264653"/>
     <use xlink:href="#mde245e9529" x="406.930909" y="393.465" style="fill: #264653; stroke: #264653"/>
     <use xlink:href="#mde245e9529" x="436.549091" y="82.377143" style="fill: #264653; stroke: #264653"/>
     <use xlink:href="#mde245e9529" x="466.167273" y="82.377143" style="fill: #264653; stroke: #264653"/>
     <use xlink:href="#mde245e9529" x="495.785455" y="169.29875" style="fill: #264653; stroke: #264653"/>
     <use xlink:href="#mde245e9529" x="525.403636" y="420.913929" style="fill: #264653; stroke: #264653"/>
     <use xlink:href="#mde245e9529" x="555.021818" y="146.424643" style="fill: #264653; stroke: #264653"/>
     <use xlink:href="#mde245e9529" x="584.64" y="206.249231" style="fill: #264653; stroke: #264653"/>
     <use xlink:href="#mde245e9529" x="614.258182" y="280.44" style="fill: #264653; stroke: #264653"/>
     <use xlink:href="#mde245e9529" x="643.876364" y="329.4175" style="fill: #264653; stroke: #264653"/>
     <use xlink:href="#mde245e9529" x="673.494545" y="206.249231" style="fill: #264653; stroke: #264653"/>
     <use xlink:href="#mde245e9529" x="703.112727" y="469.008205" style="fill: #264653; stroke: #264653"/>
     <use xlink:href="#mde245e9529" x="732.730909" y="375.165714" style="fill: #264653; stroke: #264653"/>
     <use xlink:href="#mde245e9529" x="762.349091" y="393.465" style="fill: #264653; stroke: #264653"/>
    </g>
   </g>
   <g id="PathCollection_2">
    <defs>
     <path id="m46dc32ef06" d="M 0 2.12132 
C 0.562581 2.12132 1.102195 1.897805 1.5 1.5 
C 1.897805 1.102195 2.12132 0.562581 2.12132 0 
C 2.12132 -0.562581 1.897805 -1.102195 1.5 -1.5 
C 1.102195 -1.897805 0.562581 -2.12132 0 -2.12132 
C -0.562581 -2.12132 -1.102195 -1.897805 -1.5 -1.5 
C -1.897805 -1.102195 -2.12132 -0.562581 -2.12132 0 
C -2.12132 0.562581 -1.897805 1.102195 -1.5 1.5 
C -1.102195 1.897805 -0.562581 2.12132 0 2.12132 
z
" style="stroke: #f4a261"/>
    </defs>
    <g clip-path="url(#p49fe7894cb)">
     <use xlink:href="#m46dc32ef06" x="81.130909" y="306.265039" style="fill: #f4a261; stroke: #f4a261"/>
     <use xlink:href="#m46dc32ef06" x="110.749091" y="193.099638" style="fill: #f4a261; stroke: #f4a261"/>
     <use xlink:href="#m46dc32ef06" x="140.367273" y="35.601429" style="fill: #f4a261; stroke: #f4a261"/>
     <use xlink:href="#m46dc32ef06" x="169.985455" y="392.046974" style="fill: #f4a261; stroke: #f4a261"/>
     <use xlink:href="#m46dc32ef06" x="199.603636" y="115.162584" style="fill: #f4a261; stroke: #f4a261"/>
     <use xlink:href="#m46dc32ef06" x="229.221818" y="241.506355" style="fill: #f4a261; stroke: #f4a261"/>
     <use xlink:href="#m46dc32ef06" x="258.84" y="85.866585" style="fill: #f4a261; stroke: #f4a261"/>
     <use xlink:href="#m46dc32ef06" x="288.458182" y="88.444286" style="fill: #f4a261; stroke: #f4a261"/>
     <use xlink:href="#m46dc32ef06" x="318.076364" y="371.966538" style="fill: #f4a261; stroke: #f4a261"/>
     <use xlink:href="#m46dc32ef06" x="347.694545" y="61.006648" style="fill: #f4a261; stroke: #f4a261"/>
     <use xlink:href="#m46dc32ef06" x="377.312727" y="182.783374" style="fill: #f4a261; stroke: #f4a261"/>
     <use xlink:href="#m46dc32ef06" x="406.930909" y="197.829" style="fill: #f4a261; stroke: #f4a261"/>
     <use xlink:href="#m46dc32ef06" x="436.549091" y="170.143311" style="fill: #f4a261; stroke: #f4a261"/>
     <use xlink:href="#m46dc32ef06" x="466.167273" y="145.094265" style="fill: #f4a261; stroke: #f4a261"/>
     <use xlink:href="#m46dc32ef06" x="495.785455" y="124.915583" style="fill: #f4a261; stroke: #f4a261"/>
     <use xlink:href="#m46dc32ef06" x="525.403636" y="212.028387" style="fill: #f4a261; stroke: #f4a261"/>
     <use xlink:href="#m46dc32ef06" x="555.021818" y="201.67898" style="fill: #f4a261; stroke: #f4a261"/>
     <use xlink:href="#m46dc32ef06" x="584.64" y="158.901429" style="fill: #f4a261; stroke: #f4a261"/>
     <use xlink:href="#m46dc32ef06" x="614.258182" y="148.575813" style="fill: #f4a261; stroke: #f4a261"/>
     <use xlink:href="#m46dc32ef06" x="643.876364" y="94.929545" style="fill: #f4a261; stroke: #f4a261"/>
     <use xlink:href="#m46dc32ef06" x="673.494545" y="191.072975" style="fill: #f4a261; stroke: #f4a261"/>
     <use xlink:href="#m46dc32ef06" x="703.112727" y="275.63339" style="fill: #f4a261; stroke: #f4a261"/>
     <use xlink:href="#m46dc32ef06" x="732.730909" y="358.53" style="fill: #f4a261; stroke: #f4a261"/>
     <use xlink:href="#m46dc32ef06" x="762.349091" y="358.53" style="fill: #f4a261; stroke: #f4a261"/>
    </g>
   </g>
   <g id="legend_1">
    <g id="PathCollection_3">
     <g>
      <use xlink:href="#mde245e9529" x="667.846563" y="18.715313" style="fill: #264653; stroke: #264653"/>
     </g>
    </g>
    <g id="text_33">
     <!-- MultiHuman (Fleiss kappa) -->
     <g style="fill: #262626" transform="translate(680.446563 20.552813) scale(0.07 -0.07)">
      <defs>
       <path id="LiberationSans-4d" d="M 4269 0 
L 4269 2938 
Q 4269 3425 4297 3875 
Q 4144 3316 4022 3000 
L 2884 0 
L 2466 0 
L 1313 3000 
L 1138 3531 
L 1034 3875 
L 1044 3528 
L 1056 2938 
L 1056 0 
L 525 0 
L 525 4403 
L 1309 4403 
L 2481 1350 
Q 2544 1166 2601 955 
Q 2659 744 2678 650 
Q 2703 775 2783 1029 
Q 2863 1284 2891 1350 
L 4041 4403 
L 4806 4403 
L 4806 0 
L 4269 0 
z
" transform="scale(0.015625)"/>
       <path id="LiberationSans-48" d="M 3503 0 
L 3503 2041 
L 1122 2041 
L 1122 0 
L 525 0 
L 525 4403 
L 1122 4403 
L 1122 2541 
L 3503 2541 
L 3503 4403 
L 4100 4403 
L 4100 0 
L 3503 0 
z
" transform="scale(0.015625)"/>
       <path id="LiberationSans-28" d="M 397 1663 
Q 397 2566 680 3284 
Q 963 4003 1550 4638 
L 2094 4638 
Q 1509 3988 1236 3256 
Q 963 2525 963 1656 
Q 963 791 1233 62 
Q 1503 -666 2094 -1325 
L 1550 -1325 
Q 959 -688 678 32 
Q 397 753 397 1650 
L 397 1663 
z
" transform="scale(0.015625)"/>
       <path id="LiberationSans-46" d="M 1122 3916 
L 1122 2278 
L 3578 2278 
L 3578 1784 
L 1122 1784 
L 1122 0 
L 525 0 
L 525 4403 
L 3653 4403 
L 3653 3916 
L 1122 3916 
z
" transform="scale(0.015625)"/>
       <path id="LiberationSans-29" d="M 1734 1650 
Q 1734 747 1451 28 
Q 1169 -691 581 -1325 
L 38 -1325 
Q 625 -669 897 57 
Q 1169 784 1169 1656 
Q 1169 2528 895 3256 
Q 622 3984 38 4638 
L 581 4638 
Q 1172 4000 1453 3279 
Q 1734 2559 1734 1663 
L 1734 1650 
z
" transform="scale(0.015625)"/>
      </defs>
      <use xlink:href="#LiberationSans-4d"/>
      <use xlink:href="#LiberationSans-75" transform="translate(83.300781 0)"/>
      <use xlink:href="#LiberationSans-6c" transform="translate(138.916016 0)"/>
      <use xlink:href="#LiberationSans-74" transform="translate(161.132812 0)"/>
      <use xlink:href="#LiberationSans-69" transform="translate(188.916016 0)"/>
      <use xlink:href="#LiberationSans-48" transform="translate(211.132812 0)"/>
      <use xlink:href="#LiberationSans-75" transform="translate(283.349609 0)"/>
      <use xlink:href="#LiberationSans-6d" transform="translate(338.964844 0)"/>
      <use xlink:href="#LiberationSans-61" transform="translate(422.265625 0)"/>
      <use xlink:href="#LiberationSans-6e" transform="translate(477.880859 0)"/>
      <use xlink:href="#LiberationSans-20" transform="translate(533.496094 0)"/>
      <use xlink:href="#LiberationSans-28" transform="translate(561.279297 0)"/>
      <use xlink:href="#LiberationSans-46" transform="translate(594.580078 0)"/>
      <use xlink:href="#LiberationSans-6c" transform="translate(655.664062 0)"/>
      <use xlink:href="#LiberationSans-65" transform="translate(677.880859 0)"/>
      <use xlink:href="#LiberationSans-69" transform="translate(733.496094 0)"/>
      <use xlink:href="#LiberationSans-73" transform="translate(755.712891 0)"/>
      <use xlink:href="#LiberationSans-73" transform="translate(805.712891 0)"/>
      <use xlink:href="#LiberationSans-20" transform="translate(855.712891 0)"/>
      <use xlink:href="#LiberationSans-6b" transform="translate(883.496094 0)"/>
      <use xlink:href="#LiberationSans-61" transform="translate(933.496094 0)"/>
      <use xlink:href="#LiberationSans-70" transform="translate(989.111328 0)"/>
      <use xlink:href="#LiberationSans-70" transform="translate(1044.726562 0)"/>
      <use xlink:href="#LiberationSans-61" transform="translate(1100.341797 0)"/>
      <use xlink:href="#LiberationSans-29" transform="translate(1155.957031 0)"/>
     </g>
    </g>
    <g id="PathCollection_4">
     <g>
      <use xlink:href="#m46dc32ef06" x="667.846563" y="28.740625" style="fill: #f4a261; stroke: #f4a261"/>
     </g>
    </g>
    <g id="text_34">
     <!-- Single vs Multi (Cohen kappa) -->
     <g style="fill: #262626" transform="translate(680.446563 30.578125) scale(0.07 -0.07)">
      <defs>
       <path id="LiberationSans-53" d="M 3975 1216 
Q 3975 606 3498 271 
Q 3022 -63 2156 -63 
Q 547 -63 291 1056 
L 869 1172 
Q 969 775 1294 589 
Q 1619 403 2178 403 
Q 2756 403 3070 601 
Q 3384 800 3384 1184 
Q 3384 1400 3286 1534 
Q 3188 1669 3009 1756 
Q 2831 1844 2584 1903 
Q 2338 1963 2038 2031 
Q 1516 2147 1245 2262 
Q 975 2378 819 2520 
Q 663 2663 580 2853 
Q 497 3044 497 3291 
Q 497 3856 930 4162 
Q 1363 4469 2169 4469 
Q 2919 4469 3316 4239 
Q 3713 4009 3872 3456 
L 3284 3353 
Q 3188 3703 2916 3861 
Q 2644 4019 2163 4019 
Q 1634 4019 1356 3844 
Q 1078 3669 1078 3322 
Q 1078 3119 1186 2986 
Q 1294 2853 1497 2761 
Q 1700 2669 2306 2534 
Q 2509 2488 2711 2439 
Q 2913 2391 3097 2323 
Q 3281 2256 3442 2165 
Q 3603 2075 3722 1944 
Q 3841 1813 3908 1634 
Q 3975 1456 3975 1216 
z
" transform="scale(0.015625)"/>
       <path id="LiberationSans-43" d="M 2475 3981 
Q 1744 3981 1337 3511 
Q 931 3041 931 2222 
Q 931 1413 1354 920 
Q 1778 428 2500 428 
Q 3425 428 3891 1344 
L 4378 1100 
Q 4106 531 3614 234 
Q 3122 -63 2472 -63 
Q 1806 -63 1320 214 
Q 834 491 579 1005 
Q 325 1519 325 2222 
Q 325 3275 894 3872 
Q 1463 4469 2469 4469 
Q 3172 4469 3644 4194 
Q 4116 3919 4338 3378 
L 3772 3191 
Q 3619 3575 3280 3778 
Q 2941 3981 2475 3981 
z
" transform="scale(0.015625)"/>
      </defs>
      <use xlink:href="#LiberationSans-53"/>
      <use xlink:href="#LiberationSans-69" transform="translate(66.699219 0)"/>
      <use xlink:href="#LiberationSans-6e" transform="translate(88.916016 0)"/>
      <use xlink:href="#LiberationSans-67" transform="translate(144.53125 0)"/>
      <use xlink:href="#LiberationSans-6c" transform="translate(200.146484 0)"/>
      <use xlink:href="#LiberationSans-65" transform="translate(222.363281 0)"/>
      <use xlink:href="#LiberationSans-20" transform="translate(277.978516 0)"/>
      <use xlink:href="#LiberationSans-76" transform="translate(305.761719 0)"/>
      <use xlink:href="#LiberationSans-73" transform="translate(355.761719 0)"/>
      <use xlink:href="#LiberationSans-20" transform="translate(405.761719 0)"/>
      <use xlink:href="#LiberationSans-4d" transform="translate(433.544922 0)"/>
      <use xlink:href="#LiberationSans-75" transform="translate(516.845703 0)"/>
      <use xlink:href="#LiberationSans-6c" transform="translate(572.460938 0)"/>
      <use xlink:href="#LiberationSans-74" transform="translate(594.677734 0)"/>
      <use xlink:href="#LiberationSans-69" transform="translate(622.460938 0)"/>
      <use xlink:href="#LiberationSans-20" transform="translate(644.677734 0)"/>
      <use xlink:href="#LiberationSans-28" transform="translate(672.460938 0)"/>
      <use xlink:href="#LiberationSans-43" transform="translate(705.761719 0)"/>
      <use xlink:href="#LiberationSans-6f" transform="translate(777.978516 0)"/>
      <use xlink:href="#LiberationSans-68" transform="translate(833.59375 0)"/>
      <use xlink:href="#LiberationSans-65" transform="translate(889.208984 0)"/>
      <use xlink:href="#LiberationSans-6e" transform="translate(944.824219 0)"/>
      <use xlink:href="#LiberationSans-20" transform="translate(1000.439453 0)"/>
      <use xlink:href="#LiberationSans-6b" transform="translate(1028.222656 0)"/>
      <use xlink:href="#LiberationSans-61" transform="translate(1078.222656 0)"/>
      <use xlink:href="#LiberationSans-70" transform="translate(1133.837891 0)"/>
      <use xlink:href="#LiberationSans-70" transform="translate(1189.453125 0)"/>
      <use xlink:href="#LiberationSans-61" transform="translate(1245.068359 0)"/>
      <use xlink:href="#LiberationSans-29" transform="translate(1300.683594 0)"/>
     </g>
    </g>
   </g>
  </g>
 </g>
 <defs>
  <clipPath id="p49fe7894cb">
   <rect x="63.36" y="9.18" width="716.76" height="419.22"/>
  </clipPath>
 </defs>
</svg>
